<?xml version="1.0" encoding="utf-8"?>
<!-- Generated by IcoMoon.io -->
<!DOCTYPE svg PUBLIC "-//W3C//DTD SVG 1.1//EN" "http://www.w3.org/Graphics/SVG/1.1/DTD/svg11.dtd">
<svg version="1.1" xmlns="http://www.w3.org/2000/svg" xmlns:xlink="http://www.w3.org/1999/xlink" width="1024" height="1024" viewBox="0 0 1024 1024">
<g id="icomoon-ignore">
</g>
<path fill="#000" d="M727.7 192h72v-32h-64v-94.9c54.3 7.8 96 54.4 96 110.9 0 61.9-50.1 112-112 112s-112-50.1-112-112c0-56.4 41.7-103.1 96-110.9v126.9h24zM479.7 350.4c19.8-20.2 32-47.9 32-78.4 0-61.9-50.1-112-112-112s-112 50.1-112 112c0 30.5 12.2 58.2 32 78.4v-78.4c0-43.9 35.8-80 80-80 44.5 0 80 35.8 80 80v78.4zM719.7 320c79.5 0 144-64.5 144-144s-64.5-144-144-144-144 64.5-144 144 64.5 144 144 144v0zM575.7 431.7c0-26.3-21.3-47.7-48-47.7-26.5 0-48 21.6-48 47.7v144.3h-32v-303.7c0-26.7-21.3-48.3-48-48.3-26.5 0-48 21.3-48 48.3v329.3c-65.9-70.4-152.6-147.8-188.1-112.1-34.8 35 54.9 131.4 180 342 56.4 94.9 127.8 160.5 248.1 160.5 132.5 0 240-107.5 240-240v-255.8c0-26.6-21.3-48.2-48-48.2-26.5 0-48 21.6-48 48.2v79.8h-32v-112.3c0-26.4-21.3-47.7-48-47.7-26.5 0-48 21.2-48 47.7v80.3h-32v-112.3z"></path>
</svg>
